<?xml version="1.0" standalone="no"?>
<!DOCTYPE svg PUBLIC "-//W3C//DTD SVG 20010904//EN" "http://www.w3.org/TR/2001/REC-SVG-20010904/DTD/svg10.dtd">
<!-- Created using Krita: https://krita.org -->
<svg xmlns="http://www.w3.org/2000/svg" 
    xmlns:xlink="http://www.w3.org/1999/xlink"
    xmlns:krita="http://krita.org/namespaces/svg/krita"
    xmlns:sodipodi="http://sodipodi.sourceforge.net/DTD/sodipodi-0.dtd"
    width="240pt"
    height="240pt"
    viewBox="0 0 240 240">
<defs/>
<rect id="shape0" transform="translate(83.7000027112424, 81.9962034181413)" fill="#f6fdff" fill-rule="evenodd" stroke="#f6fdff" stroke-width="1.92" stroke-linecap="square" stroke-linejoin="bevel" width="72.5999945775152" height="76.0075931637174" rx="19.1583393164931" ry="19.4137749584536"/>
<circle id="shape0" transform="matrix(0.999999984592978 0 0 0.999999984592978 150.029117114944 146.168528384838)" r="32.8800002964803" cx="32.8800002964803" cy="32.8800002964803" fill="none" stroke="#f6fdff" stroke-width="3.84" stroke-linecap="square" stroke-linejoin="bevel"/>

<path id="shape01" transform="matrix(0.999999992990879 0 0 0.999999992990879 25.0398129401061 146.650305072677)" sodipodi:type="arc" sodipodi:rx="32.8800002964803" sodipodi:ry="32.8800002964803" sodipodi:cx="32.880187296794" sodipodi:cy="32.8805782409452" sodipodi:start="5.53935730264698" sodipodi:end="5.40131336859955" sodipodi:open="true" d="M53.7822 7.49951C40.1055 -3.76367 19.9638 -2.16473 8.23544 11.1152C-3.49293 24.3952 -2.58992 44.5801 10.2774 56.7597C23.1448 68.9393 43.3488 68.7332 55.9652 56.2938C68.5815 43.8543 69.0727 23.6552 57.076 10.6172" fill="none" stroke="#f6fdff" stroke-width="3.84" stroke-linecap="square" stroke-linejoin="bevel"/>

<rect id="shape1" transform="matrix(0.708592738286883 -0.705617694822843 0.705617694822843 0.708592738286883 55.9677648723032 177.951545451392)" fill="#f6fdff" fill-rule="evenodd" stroke="#f6fdff" stroke-width="1.92" stroke-linecap="square" stroke-linejoin="bevel" width="54.1289433898494" height="4.68964151903157" rx="2.4" ry="2.34482075951578"/><rect id="shape02" transform="matrix(-0.708592738286883 -0.705617694822843 -0.705617694822843 0.708592738286883 184.860557736067 179.167994735524)" fill="#f6fdff" stroke="#f6fdff" stroke-width="1.92" stroke-linecap="square" stroke-linejoin="bevel" width="48.2480531914611" height="4.68964151903157" rx="2.4" ry="2.34482075951579"/><rect id="shape03" transform="matrix(-0.708592738286883 -0.705617694822843 -0.705617694822843 0.708592738286883 98.0593996508519 93.9359747591031)" fill="#f6fdff" stroke="#f6fdff" stroke-width="1.92" stroke-linecap="square" stroke-linejoin="bevel" width="56.2194975607478" height="4.68964151903157" rx="2.4" ry="2.34482075951579"/><rect id="shape04" transform="matrix(0.708592721306071 -0.705617677913325 0.705617677913325 0.708592721306071 140.581242379058 92.0969470429994)" fill="#f6fdff" stroke="#f6fdff" stroke-width="1.92" stroke-linecap="square" stroke-linejoin="bevel" width="56.4993096497955" height="4.68964151903157" rx="2.4" ry="2.34482075951579"/><circle id="shape05" transform="matrix(-0.999999992990879 0 0 -0.999999992990879 89.7708739625257 87.5543089319308)" r="32.8800002964803" cx="32.8800002964803" cy="32.8800002964803" fill="none" stroke="#f6fdff" stroke-width="3.84" stroke-linecap="square" stroke-linejoin="bevel"/><path id="shape01" transform="matrix(-1.00000000138878 0 0 -1.00000000138878 215.310303687414 87.1182580700724)" sodipodi:type="arc" sodipodi:rx="32.8800002964803" sodipodi:ry="32.8800002964803" sodipodi:cx="32.8800174527774" sodipodi:cy="32.8804165913652" sodipodi:start="5.62157492341525" sodipodi:end="5.40131336859955" sodipodi:open="true" d="M53.7821 7.49935C40.3072 -3.59757 20.5095 -2.23053 8.68782 10.6131C-3.1339 23.4568 -2.85855 43.2997 9.315 55.8104C21.4886 68.3211 41.3166 69.1383 54.4783 57.6717C67.64 46.2052 69.5472 26.4522 58.8225 12.6793" fill="none" stroke="#f6fdff" stroke-width="3.84" stroke-linecap="square" stroke-linejoin="bevel"/><path id="shape06" transform="matrix(0.999999966325592 0 0 0.999999966325592 34.9346949796359 156.834206230515)" sodipodi:type="arc" sodipodi:rx="22.7172892011634" sodipodi:ry="22.7172892011634" sodipodi:cx="22.6653090951708" sodipodi:cy="22.7174032775849" sodipodi:start="3.20925361581606" sodipodi:end="4.84796239529739" sodipodi:open="true" d="M25.7357 0.208568C19.5007 -0.641952 13.1922 1.13188 8.31415 5.10719C3.43606 9.08251 0.42545 14.9031 0 21.1815" fill="none" stroke="#f6fdff" stroke-width="4.8" stroke-linecap="square" stroke-linejoin="bevel"/><path id="shape07" transform="matrix(0.999999972890862 0 0 0.999999972890862 50.9888894645162 179.639993284088)" sodipodi:type="arc" sodipodi:rx="22.7172892011634" sodipodi:ry="22.7172892011634" sodipodi:cx="6.61111402627132" sodipodi:cy="-3.5527136788005e-15" sodipodi:start="6.28318530717959" sodipodi:end="1.86608584923739" sodipodi:open="true" d="M8.88178e-16 21.734C6.88492 23.8283 14.355 22.5366 20.1368 18.2519C25.9186 13.9672 29.3284 7.1964 29.3284 8.27193e-14" fill="none" stroke="#f6fdff" stroke-width="4.8" stroke-linecap="square" stroke-linejoin="bevel"/><path id="shape011" transform="matrix(0.151396443074461 0.98847307323269 -0.98847307323269 0.151396443074461 201.463877342368 154.244225488769)" sodipodi:type="arc" sodipodi:rx="22.7172892011634" sodipodi:ry="22.7172892011634" sodipodi:cx="22.6653090951708" sodipodi:cy="22.7174032775849" sodipodi:start="3.20925361581606" sodipodi:end="4.84796239529739" sodipodi:open="true" d="M25.7357 0.208568C19.5007 -0.641952 13.1922 1.13188 8.31415 5.10719C3.43606 9.08251 0.42545 14.9031 0 21.1815" fill="none" stroke="#f6fdff" stroke-width="4.8" stroke-linecap="square" stroke-linejoin="bevel"/><path id="shape02" transform="matrix(0.151396444068419 0.988473079722284 -0.988473079722284 0.151396444068419 181.351518190197 173.566080141591)" sodipodi:type="arc" sodipodi:rx="22.7172892011634" sodipodi:ry="22.7172892011634" sodipodi:cx="6.61111402627132" sodipodi:cy="-3.5527136788005e-15" sodipodi:start="6.28318530717959" sodipodi:end="1.86608584923739" sodipodi:open="true" d="M8.88178e-16 21.734C6.88492 23.8283 14.355 22.5366 20.1368 18.2519C25.9186 13.9672 29.3284 7.1964 29.3284 8.27193e-14" fill="none" stroke="#f6fdff" stroke-width="4.8" stroke-linecap="square" stroke-linejoin="bevel"/><path id="shape03" transform="matrix(0.320880757596097 0.947119530316489 -0.947119530316489 0.320880757596097 71.7363060297851 26.212219296627)" sodipodi:type="arc" sodipodi:rx="22.7172892011634" sodipodi:ry="22.7172892011634" sodipodi:cx="22.6653090951708" sodipodi:cy="22.7174032775849" sodipodi:start="3.20925361581606" sodipodi:end="4.84796239529739" sodipodi:open="true" d="M25.7357 0.208568C19.5007 -0.641952 13.1922 1.13188 8.31415 5.10719C3.43606 9.08251 0.42545 14.9031 0 21.1815" fill="none" stroke="#f6fdff" stroke-width="4.8" stroke-linecap="square" stroke-linejoin="bevel"/><path id="shape04" transform="matrix(0.320880759702767 0.947119536534589 -0.947119536534589 0.320880759702767 55.2879812421225 48.7353994225372)" sodipodi:type="arc" sodipodi:rx="22.7172892011634" sodipodi:ry="22.7172892011634" sodipodi:cx="6.61111402627132" sodipodi:cy="-3.5527136788005e-15" sodipodi:start="6.28318530717959" sodipodi:end="1.86608584923739" sodipodi:open="true" d="M8.88178e-16 21.734C6.88492 23.8283 14.355 22.5366 20.1368 18.2519C25.9186 13.9672 29.3284 7.1964 29.3284 8.27193e-14" fill="none" stroke="#f6fdff" stroke-width="4.8" stroke-linecap="square" stroke-linejoin="bevel"/><path id="shape012" transform="matrix(-0.964182092197644 0.265240881498856 -0.265240881498856 -0.964182092197644 209.415583785976 71.3182577104971)" sodipodi:type="arc" sodipodi:rx="22.7172892011634" sodipodi:ry="22.7172892011634" sodipodi:cx="22.6653090951708" sodipodi:cy="22.7174032775849" sodipodi:start="3.20925361581606" sodipodi:end="4.84796239529739" sodipodi:open="true" d="M25.7357 0.208568C19.5007 -0.641952 13.1922 1.13188 8.31415 5.10719C3.43606 9.08251 0.42545 14.9031 0 21.1815" fill="none" stroke="#f6fdff" stroke-width="4.8" stroke-linecap="square" stroke-linejoin="bevel"/><path id="shape021" transform="matrix(-0.964182098527737 0.265240883240225 -0.265240883240225 -0.964182098527737 187.887389172682 53.5875543348216)" sodipodi:type="arc" sodipodi:rx="22.7172892011634" sodipodi:ry="22.7172892011634" sodipodi:cx="6.61111402627132" sodipodi:cy="-3.5527136788005e-15" sodipodi:start="6.28318530717959" sodipodi:end="1.86608584923739" sodipodi:open="true" d="M8.88178e-16 21.734C6.88492 23.8283 14.355 22.5366 20.1368 18.2519C25.9186 13.9672 29.3284 7.1964 29.3284 8.27193e-14" fill="none" stroke="#f6fdff" stroke-width="4.8" stroke-linecap="square" stroke-linejoin="bevel"/>
</svg>
